
        <svg xmlns="http://www.w3.org/2000/svg" xmlns:xlink="http://www.w3.org/1999/xlink" version="1.1" width="3162.1621621621625" 
        height="1978.3783783783783" viewBox="0 0 3162.1621621621625 1978.3783783783783">
			
			<g transform="scale(8.108108108108109) translate(10, 10)">
				<defs id="SvgjsDefs2654"></defs><g id="SvgjsG2655" featureKey="rootContainer" transform="matrix(1,0,0,1,0,0)" fill="#202020"><rect y="0" height="1" width="1" opacity="0"></rect><rect y="219" width="370" height="5"></rect></g><g id="SvgjsG2656" featureKey="monogramFeature-0" transform="matrix(3.740846145220614,0,0,3.740846145220614,48.5425716124395,-90.53907889883308)" fill="#000000"><path d="M16.74 79.44 c-1.02 0.06 -1.14 -1.68 -0.96 -2.7 c1.86 -11.46 3.84 -22.92 8.76 -33.6 c1.62 -3.42 2.94 -6.96 4.26 -10.5 c0.24 -0.6 0.96 -1.56 0.06 -2.16 c-0.66 -0.42 -1.32 0.3 -1.86 0.66 c-5.28 3.18 -9.6 7.5 -13.56 12.12 c-5.28 6 -9.66 12.66 -13.32 19.74 c-0.3 0.6 -0.6 1.62 -1.38 1.26 c-0.84 -0.42 -0.06 -1.2 0.18 -1.8 c3.36 -9 7.5 -17.76 11.22 -26.64 c0.66 -1.62 2.46 -3.84 0.96 -5.1 c-0.96 -0.78 -2.94 1.56 -4.38 2.58 c-2.16 1.5 -3.96 3.36 -5.64 5.34 c-0.9 1.02 -3 2.22 -0.72 4.02 c0.18 0.18 0 0.6 -0.3 0.66 c-0.24 0.12 -0.66 0.12 -0.84 -0.06 c-1.32 -1.02 -1.14 -2.28 -0.36 -3.42 c3 -4.38 6.96 -7.68 11.4 -10.44 c0.66 -0.42 1.5 -0.6 2.28 0 c0.84 0.66 0.66 1.56 0.42 2.46 c-1.02 3.78 -2.94 7.2 -4.32 10.8 c-1.2 3.12 -3.12 5.94 -3.84 9.3 c-0.06 0.18 0.12 0.3 0.24 0.12 c2.4 -3 4.74 -6.06 7.2 -9.06 c3.84 -4.62 8.04 -8.88 13.02 -12.3 l1.8 -1.08 c1.02 -0.54 2.16 -0.9 3.06 0 c0.78 0.78 0.54 1.86 0.18 2.82 c-1.32 3.96 -2.88 7.8 -4.68 11.58 c-4.86 10.5 -6.9 21.66 -8.76 32.94 l0 0.3 c-0.48 0.78 1.08 2.1 -0.12 2.16 z"></path></g><g id="SvgjsG2657" featureKey="nameFeature-0" transform="matrix(1.1059964633907897,0,0,1.1059964633907897,145.42444994814846,74.86795851869982)" fill="#202020"><path d="M15.6 32.44 c0.4 0.32 -0.04 0.6 -0.24 0.76 c-2.16 2.12 -4.04 4.04 -6.6 5.64 c-0.48 0.28 -0.92 0.56 -1.4 0.76 c-0.92 0.36 -1.84 0.4 -2.64 -0.24 c-0.84 -0.68 -0.8 -1.64 -0.6 -2.56 c0.16 -0.68 0.4 -1.36 0.6 -2 c-1.76 0.84 -2.8 2.64 -4.44 3.68 c-0.56 0.36 -1.08 0.76 -1.68 1.04 c-0.72 0.32 -1.4 0.48 -2.04 -0.08 c-0.6 -0.56 -0.64 -1.32 -0.48 -2.04 c0.6 -2.84 4 -5.64 6.96 -5.72 c0.56 0 1.16 0.2 1.68 0.52 c0.24 0.16 0.44 0.56 0.8 0.36 c0.44 -0.24 0.8 -1 1.28 -0.2 c0.36 0.52 -0.16 0.96 -0.36 1.44 c-0.48 1 -1.12 1.96 -1.36 3.08 c-0.16 0.72 -0.4 1.4 0.32 1.96 c0.72 0.52 1.36 0.28 2.04 -0.08 c1.44 -0.68 2.72 -1.64 3.88 -2.76 c1.2 -1.16 2.28 -2 3.48 -3.16 c0.2 -0.24 0.48 -0.64 0.8 -0.4 z M3.88 34.24 c0.32 -0.32 0.68 -0.68 0.48 -1.2 c-0.28 -0.68 -0.92 -0.36 -1.32 -0.44 c-2.44 0 -5.04 2 -5.96 4.52 c-0.2 0.64 -0.56 1.28 0.12 1.8 c0.6 0.52 1.16 0.04 1.6 -0.24 c1.96 -1.16 3.48 -2.84 5.08 -4.44 z M19.68 27.48 c-0.68 -0.32 0.08 -0.84 0.2 -1.28 c0.08 -0.28 0.2 -0.52 0.36 -0.72 c0.08 -0.16 0.24 -0.36 0.44 -0.24 c0.16 0.08 0.2 0.28 0.28 0.44 c-0.12 0.28 -0.24 0.52 -0.32 0.76 c-0.2 0.52 -0.48 1.24 -0.96 1.04 z M29.68 32.64 c0.12 0.4 -0.48 0.44 -0.72 0.52 c-3.44 1.32 -6.52 2.8 -9.64 4.72 c-2.88 1.76 -5.08 3.84 -6.2 7.12 c-0.92 2.76 -2.28 5.4 -3.76 7.88 c-1.04 1.68 -2.4 2.84 -3.76 2.92 c-2.8 0 -3.72 -1.36 -2.96 -3.28 c0.56 -1.4 1.4 -2.56 2.44 -3.6 c2.48 -2.56 5 -5 7.8 -7.16 c0.84 -0.64 1.36 -1.4 1.76 -2.36 c0.88 -2.2 1.84 -4.4 2.76 -6.56 c0.16 -0.4 0.32 -1.08 0.92 -0.76 c0.44 0.24 -0.04 0.76 -0.16 1.08 c-0.64 1.64 -1.36 3.28 -2.04 4.96 c-0.12 0.28 -0.44 0.6 -0.08 0.88 c0.32 0.2 0.6 -0.12 0.88 -0.32 c4.84 -3.12 6.52 -3.92 11.8 -6.08 c0.32 -0.16 0.76 -0.52 0.96 0.04 z M8.520000000000001 52.64 c1.8 -3.16 3.4 -6.36 4.52 -9.84 c-3.52 2.36 -6.52 5.36 -9.12 8.72 c-0.24 0.32 -0.36 0.68 -0.52 1.04 c-0.32 0.68 -0.6 1.36 0.04 2.04 c0.68 0.68 1.44 0.64 2.24 0.4 c1.24 -0.4 2.2 -1.24 2.84 -2.36 z M32.2 39.8 c-2.64 0 -3.72 -1.52 -2.96 -4.04 c0.52 -1.56 1.4 -2.84 2.72 -3.8 c0.96 -0.68 2.04 -0.76 2.96 -0.04 c0.72 0.56 0.48 2.08 -0.44 3 c-1 1 -2.2 1.6 -3.68 1.52 c-0.96 -0.08 -1.32 0.6 -0.84 1.48 c0.52 0.96 1.96 1.48 3.36 1.08 c2.32 -0.68 4.32 -2 6.04 -3.68 c1.04 -1 1.88 -1.64 2.92 -2.68 c0.16 -0.16 0.4 -0.44 0.64 -0.12 c0.12 0.16 0.04 0.36 -0.08 0.52 c-2.72 2.8 -5.2 5.28 -9.08 6.56 c-0.52 0.16 -1.04 0.16 -1.56 0.2 z M31.000000000000004 35.68 c1.04 0.48 3.56 -1.24 3.6 -2.64 c-0.04 -0.6 -0.52 -0.92 -1.32 -0.8 c-0.8 0.08 -2.6 1.88 -2.72 2.68 c-0.08 0.4 0.12 0.64 0.44 0.76 z M58.36 39.8 c-2.64 0 -3.72 -1.52 -2.96 -4.04 c0.52 -1.56 1.4 -2.84 2.72 -3.8 c0.96 -0.68 2.04 -0.76 2.96 -0.04 c0.72 0.56 0.48 2.08 -0.44 3 c-1 1 -2.2 1.6 -3.68 1.52 c-0.96 -0.08 -1.32 0.6 -0.84 1.48 c0.52 0.96 1.96 1.48 3.36 1.08 c2.32 -0.68 4.32 -2 6.04 -3.68 c1.04 -1 1.88 -1.64 2.92 -2.68 c0.16 -0.16 0.4 -0.44 0.64 -0.12 c0.12 0.16 0.04 0.36 -0.08 0.52 c-2.72 2.8 -5.2 5.28 -9.08 6.56 c-0.52 0.16 -1.04 0.16 -1.56 0.2 z M57.160000000000004 35.68 c1.04 0.48 3.56 -1.24 3.6 -2.64 c-0.04 -0.6 -0.52 -0.92 -1.32 -0.8 c-0.8 0.08 -2.6 1.88 -2.72 2.68 c-0.08 0.4 0.12 0.64 0.44 0.76 z M70.04 40.88 c-0.6 -0.72 -0.04 -1.52 1.04 -2.04 c1.04 -0.52 1.24 -1.32 0.92 -2.04 c-1.04 -2.36 -1.36 -3 -1.12 -3.96 c0.24 -0.84 0.92 -1.4 1.72 -1.44 c0.76 -0.04 1.28 0.32 1.6 0.96 c0.28 0.56 0.2 1.48 -0.52 1.96 c-0.16 0.08 -0.44 0.24 -0.6 0.08 c-0.24 -0.16 -0.12 -0.32 0.08 -0.52 c1.04 -0.8 -0.08 -2.2 -0.96 -1.52 c-0.96 0.72 -0.56 1.88 0.76 4.72 c0.12 0.24 0.4 0.6 0.88 0.36 c0.92 -0.4 2.08 -0.92 3.2 -1.44 c2.04 -0.96 3.88 -2.12 5.76 -3.36 c0.24 -0.16 0.56 -0.6 0.84 -0.16 c0.24 0.36 -0.16 0.52 -0.44 0.72 c-2.64 1.88 -5.4 3.44 -8.44 4.6 c-0.96 0.36 -1.68 1 -1.92 1.92 c-0.28 1 -2.04 2.08 -2.8 1.16 z M71.32000000000001 40.44 c0.92 -0.36 1.28 -1.68 0.48 -1.28 c-1.72 0.84 -1.24 1.6 -0.48 1.28 z M84.4 40.88 c-0.6 -0.72 -0.04 -1.52 1.04 -2.04 c1.04 -0.52 1.24 -1.32 0.92 -2.04 c-1.04 -2.36 -1.36 -3 -1.12 -3.96 c0.24 -0.84 0.92 -1.4 1.72 -1.44 c0.76 -0.04 1.28 0.32 1.6 0.96 c0.28 0.56 0.2 1.48 -0.52 1.96 c-0.16 0.08 -0.44 0.24 -0.6 0.08 c-0.24 -0.16 -0.12 -0.32 0.08 -0.52 c1.04 -0.8 -0.08 -2.2 -0.96 -1.52 c-0.96 0.72 -0.56 1.88 0.76 4.72 c0.12 0.24 0.4 0.6 0.88 0.36 c0.92 -0.4 2.08 -0.92 3.2 -1.44 c2.04 -0.96 3.88 -2.12 5.76 -3.36 c0.24 -0.16 0.56 -0.6 0.84 -0.16 c0.24 0.36 -0.16 0.52 -0.44 0.72 c-2.64 1.88 -5.4 3.44 -8.44 4.6 c-0.96 0.36 -1.68 1 -1.92 1.92 c-0.28 1 -2.04 2.08 -2.8 1.16 z M85.68 40.44 c0.92 -0.36 1.28 -1.68 0.48 -1.28 c-1.72 0.84 -1.24 1.6 -0.48 1.28 z M100.56 39.8 c-2.64 0 -3.72 -1.52 -2.96 -4.04 c0.52 -1.56 1.4 -2.84 2.72 -3.8 c0.96 -0.68 2.04 -0.76 2.96 -0.04 c0.72 0.56 0.48 2.08 -0.44 3 c-1 1 -2.2 1.6 -3.68 1.52 c-0.96 -0.08 -1.32 0.6 -0.84 1.48 c0.52 0.96 1.96 1.48 3.36 1.08 c2.32 -0.68 4.32 -2 6.04 -3.68 c1.04 -1 1.88 -1.64 2.92 -2.68 c0.16 -0.16 0.4 -0.44 0.64 -0.12 c0.12 0.16 0.04 0.36 -0.08 0.52 c-2.72 2.8 -5.2 5.28 -9.08 6.56 c-0.52 0.16 -1.04 0.16 -1.56 0.2 z M99.36 35.68 c1.04 0.48 3.56 -1.24 3.6 -2.64 c-0.04 -0.6 -0.52 -0.92 -1.32 -0.8 c-0.8 0.08 -2.6 1.88 -2.72 2.68 c-0.08 0.4 0.12 0.64 0.44 0.76 z M120.84 39.76 c-0.76 -0.8 -0.4 -1.88 -0.16 -2.84 c0.28 -1.08 0.76 -2.12 0.96 -3.2 c0.24 -1.16 -0.36 -1.6 -1.48 -1.16 c-1.76 0.64 -3.28 1.72 -4.6 3.04 c-1.16 1.16 -2.24 2.32 -3.4 3.44 c-0.28 0.28 -0.56 0.88 -1.12 0.56 c-0.36 -0.2 -0.24 -0.72 -0.16 -1.08 c0.36 -2.28 1.52 -4.2 2.44 -6.28 c0.08 -0.2 0.32 -0.32 0.44 -0.2 c0.12 0.2 0.2 0.52 0.12 0.72 c-0.48 1.16 -1.04 2.32 -1.52 3.48 c-0.2 0.48 -0.44 1 -0.56 1.48 c-0.04 0.2 -0.12 0.76 0.36 0.28 c2 -1.88 3.68 -4.04 6.16 -5.36 c1.04 -0.56 2.16 -1.76 3.4 -0.8 c1.32 1 0.6 2.44 0.24 3.68 c-0.24 0.92 -0.6 1.76 -0.76 2.68 c-0.2 1 0.16 1.48 1.32 1 c1.92 -0.84 3.48 -2.2 5.08 -3.44 c1.4 -1.12 2.48 -2.04 3.88 -3.16 c0.2 -0.2 0.56 -0.52 0.8 -0.2 c0.16 0.2 -0.2 0.4 -0.4 0.56 c-2.4 2.08 -4.52 3.92 -7.12 5.76 c-0.4 0.28 -0.8 0.52 -1.2 0.68 c-0.88 0.4 -1.8 1.28 -2.72 0.36 z M136.12000000000003 40.08 c-2.36 0.16 -3.12 -0.56 -3.24 -2.88 c-0.08 -2.08 0.76 -3.92 1.52 -5.72 c0.84 -1.96 1.72 -3.88 2.6 -5.8 c0.2 -0.48 0.76 -1.32 0.48 -1.48 c-0.08 -0.16 -1.44 0.04 -1.92 0.04 c-1.16 0.12 -3.36 0.24 -4.08 0.24 c-0.24 0 -0.6 0 -0.56 -0.4 c0.04 -0.36 0.4 -0.32 0.6 -0.32 c0.92 -0.04 3.12 -0.12 4.68 -0.24 c2.24 -0.16 1.96 -0.32 2.96 -2.56 c0.52 -1.28 1.24 -2.48 1.88 -3.72 c0.16 -0.28 0.36 -0.68 0.72 -0.48 c0.4 0.2 0.08 0.56 -0.04 0.84 c-0.68 1.36 -1.36 2.72 -2 4.12 c-0.72 1.6 -0.84 1.6 0.04 1.56 c1.04 0 1.64 -0.08 2.04 -0.08 c0.6 0 1.32 -0.16 2.04 -0.16 c0.92 -0.04 1.2 -0.24 1.24 0.32 c0 0.36 -0.52 0.28 -1.4 0.36 c-0.92 0.08 -2.44 0.24 -3.96 0.32 c-1 0 -1.12 0.16 -1.4 0.84 c-1.48 3.48 -3.36 6.76 -4.4 10.4 c-0.36 1.32 -0.76 2.76 0.44 3.72 c1.28 1 2.64 0.32 3.8 -0.52 c2.08 -1.48 4 -3.68 5.68 -5.56 c0.24 -0.28 0.52 -0.84 0.88 -0.6 c0.48 0.4 -0.12 0.68 -0.44 1.24 c-1.92 2.16 -3.68 4.12 -6 5.68 c-0.64 0.44 -1.32 0.8 -2.16 0.84 z M148.96000000000004 28.64 c-0.44 0.04 -0.72 -0.24 -0.8 -0.68 c-0.16 -1 0.76 -1.16 1.32 -1.44 c0.4 -0.2 0.68 0.2 0.8 0.64 c-0.24 0.64 -0.48 1.36 -1.32 1.48 z M147.08 39.68 c-1.48 0.44 -2.68 -0.56 -2.56 -2.16 c0.44 -1.68 1.24 -3.36 2.04 -5.04 c0.16 -0.32 0.44 -0.6 0.76 -0.36 c0.4 0.28 0.04 0.6 -0.08 0.88 c-0.52 1.2 -1.12 2.4 -1.56 3.64 c-0.24 0.72 -0.56 1.56 0.24 2.24 c0.52 0.4 1.4 0 2.04 -0.24 c2.52 -1.04 4.52 -3.96 7.44 -6.12 c0.2 -0.12 0.36 -0.44 0.6 -0.12 c0.2 0.24 -0.04 0.44 -0.24 0.56 c-3.88 2.8 -4.6 5.56 -8.68 6.72 z M173.52 32.44 c0.4 0.32 -0.04 0.6 -0.24 0.76 c-2.16 2.12 -4.04 4.04 -6.6 5.64 c-0.48 0.28 -0.92 0.56 -1.4 0.76 c-0.92 0.36 -1.84 0.4 -2.64 -0.24 c-0.84 -0.68 -0.8 -1.64 -0.6 -2.56 c0.16 -0.68 0.4 -1.36 0.6 -2 c-1.76 0.84 -2.8 2.64 -4.44 3.68 c-0.56 0.36 -1.08 0.76 -1.68 1.04 c-0.72 0.32 -1.4 0.48 -2.04 -0.08 c-0.6 -0.56 -0.64 -1.32 -0.48 -2.04 c0.6 -2.84 4 -5.64 6.96 -5.72 c0.56 0 1.16 0.2 1.68 0.52 c0.24 0.16 0.44 0.56 0.8 0.36 c0.44 -0.24 0.8 -1 1.28 -0.2 c0.36 0.52 -0.16 0.96 -0.36 1.44 c-0.48 1 -1.12 1.96 -1.36 3.08 c-0.16 0.72 -0.4 1.4 0.32 1.96 c0.72 0.52 1.36 0.28 2.04 -0.08 c1.44 -0.68 2.72 -1.64 3.88 -2.76 c1.2 -1.16 2.28 -2 3.48 -3.16 c0.2 -0.24 0.48 -0.64 0.8 -0.4 z M161.8 34.24 c0.32 -0.32 0.68 -0.68 0.48 -1.2 c-0.28 -0.68 -0.92 -0.36 -1.32 -0.44 c-2.44 0 -5.04 2 -5.96 4.52 c-0.2 0.64 -0.56 1.28 0.12 1.8 c0.6 0.52 1.16 0.04 1.6 -0.24 c1.96 -1.16 3.48 -2.84 5.08 -4.44 z M179.24 39.56 c-3.24 1.48 -5.2 -0.28 -4.84 -3.2 c0.12 -0.96 0.32 -2.04 0.72 -3 c2.88 -6.88 6.6 -13.2 11.92 -18.48 c1.08 -1.08 2.28 -2.04 3.72 -2.64 c2.4 -0.96 3.72 0 3.32 2.48 c-0.44 2.88 -2.12 5.16 -3.96 7.24 c-3.6 4 -7.84 7.16 -12.72 9.4 c-0.48 0.24 -0.76 0.52 -0.96 0.96 c-0.52 1.2 -0.96 2.44 -1.16 3.76 c-0.36 2.76 1.16 3.92 3.68 2.84 c2.48 -1.08 4.48 -2.88 6.52 -4.52 l2.44 -2 c0.12 -0.08 0.44 -0.2 0.52 -0.12 c0.32 0.24 0.08 0.48 -0.12 0.64 c-3.04 2.32 -5.52 5 -9.08 6.64 z M177.88000000000002 30.439999999999998 c3.8 -1.72 7 -4.28 10.04 -7.04 c2.32 -2.16 4.24 -4.76 5.28 -7.84 c0.32 -0.84 0.56 -1.92 -0.2 -2.64 c-0.88 -0.8 -1.72 0.08 -2.52 0.36 c-0.44 0.16 -0.84 0.48 -1.2 0.76 c-5.16 4.44 -8.96 9.96 -11.76 16.12 c-0.2 0.32 0.04 0.44 0.36 0.28 z M189.24 40.88 c-0.6 -0.72 -0.04 -1.52 1.04 -2.04 c1.04 -0.52 1.24 -1.32 0.92 -2.04 c-1.04 -2.36 -1.36 -3 -1.12 -3.96 c0.24 -0.84 0.92 -1.4 1.72 -1.44 c0.76 -0.04 1.28 0.32 1.6 0.96 c0.28 0.56 0.2 1.48 -0.52 1.96 c-0.16 0.08 -0.44 0.24 -0.6 0.08 c-0.24 -0.16 -0.12 -0.32 0.08 -0.52 c1.04 -0.8 -0.08 -2.2 -0.96 -1.52 c-0.96 0.72 -0.56 1.88 0.76 4.72 c0.12 0.24 0.4 0.6 0.88 0.36 c0.92 -0.4 2.08 -0.92 3.2 -1.44 c2.04 -0.96 3.88 -2.12 5.76 -3.36 c0.24 -0.16 0.56 -0.6 0.84 -0.16 c0.24 0.36 -0.16 0.52 -0.44 0.72 c-2.64 1.88 -5.4 3.44 -8.44 4.6 c-0.96 0.36 -1.68 1 -1.92 1.92 c-0.28 1 -2.04 2.08 -2.8 1.16 z M190.52 40.44 c0.92 -0.36 1.28 -1.68 0.48 -1.28 c-1.72 0.84 -1.24 1.6 -0.48 1.28 z"></path></g>
			</g>
		</svg>
	